<?xml version="1.0" encoding="UTF-8"?>
<!DOCTYPE svg PUBLIC "-//W3C//DTD SVG 1.1//EN" "http://www.w3.org/Graphics/SVG/1.1/DTD/svg11.dtd">
<!-- Creator: CorelDRAW (Versão OEM) -->
<svg xmlns="http://www.w3.org/2000/svg" xml:space="preserve" width="70mm" height="70mm" version="1.1" style="shape-rendering:geometricPrecision; text-rendering:geometricPrecision; image-rendering:optimizeQuality; fill-rule:evenodd; clip-rule:evenodd"
viewBox="0 0 7000 7000"
 xmlns:xlink="http://www.w3.org/1999/xlink"
 xmlns:xodm="http://www.corel.com/coreldraw/odm/2003">
 <defs>
  <style type="text/css">
   <![CDATA[
    .fil0 {fill:#FEFEFE}
    .fil1 {fill:url(#id0)}
   ]]>
  </style>
  <linearGradient id="id0" gradientUnits="userSpaceOnUse" x1="5702.37" y1="4316.89" x2="1294.78" y2="2697.95">
   <stop offset="0" style="stop-opacity:1; stop-color:#0F1F50"/>
   <stop offset="1" style="stop-opacity:1; stop-color:#00B8AC"/>
  </linearGradient>
 </defs>
 <g id="Camada_x0020_1">
  <metadata id="CorelCorpID_0Corel-Layer"/>
  <rect class="fil0" x="44.8" y="55.2" width="6900" height="6900" rx="702.48" ry="1000"/>
  <path class="fil1" d="M1863.84 3479.95l1786.17 -1016.92c54.46,-31.01 149.32,-26.02 210.81,11.09l1516.68 915.2c61.5,37.1 67.25,92.83 12.79,123.83l-1786.17 1016.93c-54.45,31 -149.32,26.02 -210.82,-11.09l-1516.68 -915.2c-61.49,-37.11 -67.24,-92.83 -12.78,-123.84zm3726.18 190.5c-46.42,76.03 -107.4,130.53 -179.24,168.92l-3602.32 2116.93c-252.73,132.09 -161.41,203.34 -40.2,280.31l1087.35 601.86c237.17,143.59 351.76,51.13 564.41,-56.73l1854.16 -1136.94c259.02,-186.7 348.73,-301.04 359.24,-740.34l27.02 -1068.35 4.17 -115.24c-0.46,-204.48 -62.84,-67.7 -74.59,-50.42zm-4230.49 -525.67l-25.82 -1041.1c-12.89,-284.93 77.91,-406.42 456.93,-670.25l2011.84 -1222.07c247.76,-126.21 343.7,-168.53 575.48,16.9l1025.58 625.57c43.48,33.95 101.83,157.89 -3.22,217.19l-3776.59 2251.23c-256.85,166.77 -256.7,-63.19 -264.2,-177.47z"/>
 </g>
</svg>
